<svg aria-hidden="true" style="position: absolute; width: 0; height: 0; overflow: hidden;" version="1.1" xmlns="http://www.w3.org/2000/svg" xmlns:xlink="http://www.w3.org/1999/xlink">
<defs>
<symbol id="icon-edit" viewBox="0 0 30 32">
<path fill="#fff" style="fill: var(--color1, #fff)" d="M29.867 28.8h-29.867v2.773h29.867v-2.773z"></path>
<path fill="#fff" style="fill: var(--color1, #fff)" d="M20.465 2.035l-15.423 15.423v7.074h7.074l15.423-15.423-7.074-7.074zM11.079 22.033h-3.537v-3.537l12.923-12.923 3.537 3.537-12.923 12.923z"></path>
</symbol>
<symbol id="icon-heart" viewBox="0 0 32 32">
<path fill="#ff6b09" style="fill: var(--color2, #ff6b09)" d="M16 30.72l-2.24-2.24c-8.32-7.36-13.76-12.32-13.76-18.4 0-4.96 3.84-8.8 8.8-8.8 2.72 0 5.44 1.28 7.2 3.36 1.76-2.080 4.48-3.36 7.2-3.36 4.96 0 8.8 3.84 8.8 8.8 0 6.080-5.44 11.040-13.76 18.4l-2.24 2.24z"></path>
</symbol>
<symbol id="icon-delete" viewBox="0 0 32 32">
<path d="M20.8 0h-19.2v32h28.8v-22.4l-9.6-9.6zM20.8 4.528l5.072 5.072h-5.072v-5.072zM27.2 28.8h-22.4v-25.6h12.8v9.6h9.6v16z"></path>
<path d="M22.016 15.473l-2.256-2.272-3.728 3.728-3.904-3.904-2.256 2.272 3.888 3.888-3.696 3.712 2.256 2.256 3.712-3.696 3.728 3.728 2.256-2.272-3.728-3.728 3.728-3.712z"></path>
</symbol>
<symbol id="icon-add" viewBox="0 0 32 32">
<path fill="none" stroke="#fff" style="stroke: var(--color1, #fff)" stroke-linejoin="miter" stroke-linecap="butt" stroke-miterlimit="4" stroke-width="4.5714" d="M16 0v32"></path>
<path fill="none" stroke="#fff" style="stroke: var(--color1, #fff)" stroke-linejoin="miter" stroke-linecap="butt" stroke-miterlimit="4" stroke-width="4.5714" d="M0 16h32"></path>
</symbol>
<symbol id="icon-user" viewBox="0 0 29 32">
<path d="M27.874 32h-3.242c0-5.47-4.588-9.919-10.232-9.919s-10.23 4.45-10.23 9.919h-3.242c0-7.26 6.046-13.161 13.474-13.161 7.427 0 13.472 5.901 13.472 13.161z"></path>
<path d="M14.401 17.785c-4.901 0-8.891-3.991-8.891-8.892-0.002-4.903 3.988-8.893 8.891-8.893 4.904 0 8.894 3.988 8.894 8.893s-3.99 8.892-8.894 8.892zM14.401 3.242c-3.116 0-5.65 2.534-5.65 5.65s2.534 5.65 5.65 5.65c3.118 0 5.652-2.534 5.652-5.65s-2.537-5.65-5.652-5.65z"></path>
</symbol>
<symbol id="icon-share" viewBox="0 0 32 32">
<path fill="#878686" style="fill: var(--color4, #878686)" d="M25.436 21.333c-1.623 0-3.079 0.73-4.058 1.878l-9.632-5.955c0.098-0.403 0.151-0.824 0.151-1.256s-0.053-0.853-0.151-1.256l9.632-5.955c0.979 1.148 2.434 1.878 4.058 1.878 2.941 0 5.333-2.393 5.333-5.333s-2.393-5.333-5.333-5.333-5.333 2.393-5.333 5.333c0 0.433 0.053 0.853 0.151 1.256l-9.631 5.955c-0.979-1.148-2.434-1.878-4.058-1.878-2.941 0-5.333 2.393-5.333 5.333s2.393 5.333 5.333 5.333c1.624 0 3.079-0.73 4.058-1.878l9.631 5.955c-0.098 0.403-0.151 0.824-0.151 1.256 0 2.941 2.393 5.333 5.333 5.333s5.333-2.393 5.333-5.333c0-2.941-2.393-5.333-5.333-5.333zM25.436 2.462c1.584 0 2.872 1.288 2.872 2.872s-1.288 2.872-2.872 2.872c-1.583 0-2.872-1.288-2.872-2.872s1.288-2.872 2.872-2.872zM6.564 18.872c-1.583 0-2.872-1.288-2.872-2.872s1.288-2.872 2.872-2.872c1.583 0 2.872 1.288 2.872 2.872s-1.288 2.872-2.872 2.872zM25.436 29.538c-1.583 0-2.872-1.288-2.872-2.872s1.288-2.872 2.872-2.872c1.584 0 2.872 1.288 2.872 2.872s-1.288 2.872-2.872 2.872z"></path>
</symbol>
<symbol id="icon-enter" viewBox="0 0 32 32">
<path d="M3.236 21.654v7.111h25.529v-25.529h-25.529v7.111h-2.916v-6.791c0-1.788 1.448-3.236 3.236-3.236h24.889c1.788 0 3.236 1.448 3.236 3.236v24.889c0 1.788-1.448 3.236-3.235 3.236h-24.889c-1.788 0-3.236-1.448-3.236-3.236v-6.791h2.916zM17.964 14.542l-4.915-4.916 2.063-2.063 8.436 8.436-8.436 8.436-2.063-2.063 4.915-4.916h-17.644v-2.915h17.644z"></path>
</symbol>
<symbol id="icon-search" viewBox="0 0 32 32">
<path  d="M22.222 19.556h-1.404l-0.498-0.48c1.742-2.027 2.791-4.658 2.791-7.52 0-6.382-5.173-11.556-11.556-11.556s-11.556 5.173-11.556 11.556c0 6.382 5.173 11.556 11.556 11.556 2.862 0 5.493-1.049 7.52-2.791l0.48 0.498v1.404l8.889 8.871 2.649-2.649-8.871-8.889zM11.556 19.556c-4.427 0-8-3.573-8-8s3.573-8 8-8c4.427 0 8 3.573 8 8s-3.573 8-8 8z"></path>
</symbol>
<symbol id="icon-menu" viewBox="0 0 51 32">
<path d="M1.6 32h48v-5.333h-48v5.333zM1.6 18.667h48v-5.333h-48v5.333zM1.6 0v5.333h48v-5.333h-48z"></path>
</symbol>
<symbol id="icon-copyright" viewBox="0 0 32 32">
<path d="M13.12 14.29c0.075-0.495 0.24-0.93 0.45-1.305s0.51-0.69 0.885-0.93c0.36-0.225 0.81-0.33 1.365-0.345 0.345 0.015 0.66 0.075 0.945 0.195 0.3 0.135 0.57 0.315 0.78 0.54s0.375 0.495 0.51 0.795c0.135 0.3 0.195 0.63 0.21 0.96h2.685c-0.030-0.705-0.165-1.35-0.42-1.935s-0.6-1.095-1.050-1.515c-0.45-0.42-0.99-0.75-1.62-0.99s-1.32-0.345-2.085-0.345c-0.975 0-1.83 0.165-2.55 0.51s-1.32 0.795-1.8 1.38c-0.48 0.585-0.84 1.26-1.065 2.040s-0.36 1.59-0.36 2.46v0.405c0 0.87 0.12 1.68 0.345 2.46s0.585 1.455 1.065 2.025c0.48 0.57 1.080 1.035 1.8 1.365s1.575 0.51 2.55 0.51c0.705 0 1.365-0.12 1.98-0.345s1.155-0.54 1.62-0.945c0.465-0.405 0.84-0.87 1.11-1.41s0.435-1.11 0.45-1.725h-2.685c-0.015 0.315-0.090 0.6-0.225 0.87s-0.315 0.495-0.54 0.69c-0.225 0.195-0.48 0.345-0.78 0.45-0.285 0.105-0.585 0.135-0.9 0.15-0.54-0.015-0.99-0.12-1.335-0.345-0.375-0.24-0.675-0.555-0.885-0.93s-0.375-0.825-0.45-1.32c-0.075-0.495-0.12-1.005-0.12-1.5v-0.405c0-0.525 0.045-1.020 0.12-1.515zM16 1c-8.28 0-15 6.72-15 15s6.72 15 15 15c8.28 0 15-6.72 15-15s-6.72-15-15-15zM16 28c-6.615 0-12-5.385-12-12s5.385-12 12-12c6.615 0 12 5.385 12 12s-5.385 12-12 12z"></path>
</symbol>
<symbol id="icon-arrow-btn" viewBox="0 0 64 32">
<path d="M0 0l32 32 32-32h-64z"></path>
</symbol>
<symbol id="icon-arrow-top" viewBox="0 0 53 32">
<path d="M0 29.591l26.667-26.312 26.667 26.312h-53.333z"></path>
</symbol>
<symbol id="icon-arrow-left" viewBox="0 0 21 32">
<path d="M19.76 3.76l-3.76-3.76-16 16 16 16 3.76-3.76-12.213-12.24 12.213-12.24z"></path>
</symbol>
<symbol id="icon-refresh" viewBox="0 0 40 32">
<path d="M8 16h-8l10 10 10-10h-8c0-6.62 5.38-12 12-12s12 5.38 12 12c0 6.62-5.38 12-12 12v4c8.84 0 16-7.16 16-16s-7.16-16-16-16c-8.84 0-16 7.16-16 16z"></path>
</symbol>
<symbol id="icon-full-screen" viewBox="0 0 30 32">
<path  d="M4.22 20.22h-4.22v10.549h10.549v-4.22h-6.33v-6.33zM0 11.78h4.22v-6.33h6.33v-4.22h-10.549v10.549zM25.319 26.549h-6.33v4.22h10.549v-10.549h-4.22v6.33zM18.989 1.231v4.22h6.33v6.33h4.22v-10.549h-10.549z"></path>
</symbol>
<symbol id="icon-contured-heart" viewBox="0 0 37 32">
<path  d="M18.286 29.714c-0.456 0-0.895-0.159-1.237-0.448-1.293-1.089-2.539-2.112-3.639-3.015l-0.006-0.005c-3.224-2.647-6.008-4.933-7.945-7.184-2.165-2.517-3.174-4.904-3.174-7.511 0-2.533 0.902-4.87 2.539-6.581 1.656-1.731 3.929-2.684 6.401-2.684 1.847 0 3.539 0.563 5.028 1.672 0.751 0.56 1.433 1.245 2.033 2.045 0.6-0.799 1.281-1.485 2.033-2.045 1.489-1.11 3.181-1.672 5.028-1.672 2.471 0 4.744 0.953 6.401 2.684 1.637 1.711 2.538 4.048 2.538 6.581 0 2.607-1.008 4.994-3.174 7.511-1.937 2.252-4.721 4.538-7.944 7.184-1.102 0.904-2.35 1.929-3.645 3.021-0.342 0.288-0.782 0.447-1.237 0.447zM11.225 4.092c-1.942 0-3.725 0.747-5.023 2.102-1.317 1.376-2.042 3.279-2.042 5.357 0 2.193 0.846 4.154 2.743 6.359 1.833 2.131 4.56 4.37 7.717 6.962l0.006 0.005c1.104 0.906 2.355 1.934 3.657 3.031 1.31-1.099 2.563-2.128 3.669-3.036 3.157-2.592 5.883-4.831 7.717-6.962 1.896-2.205 2.742-4.166 2.742-6.359 0-2.078-0.725-3.981-2.042-5.357-1.297-1.356-3.081-2.102-5.023-2.102-1.422 0-2.728 0.436-3.881 1.295-1.028 0.766-1.743 1.734-2.163 2.411-0.216 0.348-0.596 0.556-1.016 0.556s-0.801-0.208-1.016-0.556c-0.419-0.677-1.135-1.646-2.163-2.411-1.153-0.859-2.459-1.295-3.881-1.295z"></path>
</symbol>
<symbol id="icon-arrow-right" viewBox="0 0 19 32">
<path d="M1.416 4.984l3.384-3.384 14.4 14.4-14.4 14.4-3.384-3.384 10.992-11.016-10.992-11.016z"></path>
</symbol>
<symbol id="icon-close" viewBox="0 0 32 32">
<path d="M32 3.223l-3.223-3.223-12.777 12.777-12.777-12.777-3.223 3.223 12.777 12.777-12.777 12.777 3.223 3.223 12.777-12.777 12.777 12.777 3.223-3.223-12.777-12.777 12.777-12.777z"></path>
</symbol>
<symbol id="icon-logout" viewBox="0 0 20 20">
<path  d="M2.02219 13.5335V17.978H17.9778V2.02243H2.02219V6.46686H0.199951V2.22243C0.199951 1.10508 1.10484 0.200195 2.22219 0.200195H17.7777C18.8951 0.200195 19.7999 1.10508 19.7999 2.22243V17.778C19.7999 18.8953 18.8951 19.8002 17.7778 19.8002H2.22219C1.10484 19.8002 0.199951 18.8953 0.199951 17.778V13.5335H2.02219ZM11.2272 9.08901L8.15503 6.01677L9.44438 4.72738L14.7171 10.0001L9.44438 15.2728L8.15503 13.9834L11.2272 10.9112H0.199951V9.08901H11.2272Z" fill="black"/>
</symbol>
<symbol id="icon-google" viewBox="0 0 18 18">
<path d="M17.855 7.334c.08 0 .145.065.145.145V9a9.002 9.002 0 01-9.063 9A8.979 8.979 0 010 8.98a9 9 0 0115.258-6.448c.059.056.06.15.003.207l-2.152 2.152a.144.144 0 01-.202.003A5.649 5.649 0 009 3.332a5.651 5.651 0 00-5.668 5.629 5.668 5.668 0 0011.087 1.705H9.145A.145.145 0 019 10.521V7.48c0-.08.065-.145.145-.145h8.71z" fill="#2196F3"/><path d="M17.855 7.334h-1.087c.08 0 .145.065.145.145V9a9.004 9.004 0 01-8.457 8.984A9.002 9.002 0 0018 9V7.479a.145.145 0 00-.145-.145z" fill="#1E88E5"/><path d="M3.852 6.626L1.118 4.651A8.998 8.998 0 019 0c2.432 0 4.638.965 6.258 2.532.059.056.06.15.003.207l-2.152 2.152a.144.144 0 01-.202.003 5.668 5.668 0 00-9.056 1.732z" fill="#F44336"/><path d="M3.063 6.056l.789.57A5.671 5.671 0 018.41 3.363l.046-.005a5.651 5.651 0 00-5.393 2.698zM14.172 2.532c.058.056.06.15.002.207l-1.746 1.747c.167.127.327.263.479.408a.144.144 0 00.202-.003L15.26 2.74a.145.145 0 00-.003-.207A8.973 8.973 0 008.457.017a8.971 8.971 0 015.715 2.515z" fill="#E53935"/><path d="M15.602 15.117A8.975 8.975 0 019 18a8.999 8.999 0 01-8.052-4.975l2.791-1.912a5.67 5.67 0 009.13 2.029l2.733 1.975z" fill="#4CAF50"/><path d="M3.74 11.113l-.824.564a5.667 5.667 0 005.54 2.965 5.673 5.673 0 01-4.717-3.529zM9 18a8.975 8.975 0 006.602-2.883l-.67-.484a8.984 8.984 0 01-6.474 3.35c.18.011.36.017.542.017z" fill="#43A047"/><path d="M3.332 9c0 .747.145 1.46.407 2.113L.95 13.025A8.959 8.959 0 010 9c0-1.577.406-3.06 1.118-4.349l2.734 1.975A5.645 5.645 0 003.332 9z" fill="#FFC107"/><path d="M2.916 11.677l.823-.564A5.651 5.651 0 013.332 9c0-.848.186-1.652.52-2.374l-.79-.57a5.66 5.66 0 00-.817 2.905 5.644 5.644 0 00.671 2.716z" fill="#FFB300"/></g><defs><clipPath id="clip0"><path fill="#fff" d="M0 0h18v18H0z"/>
</symbol>
</defs>
</svg>